Coordinates
version=1
nRows=5
nColumns=63
inDegrees=yes

Units are S.I. units (second, meters, Newtons, ...)
If the header above contains a line with 'inDegrees', this indicates whether rotational values are in degrees (yes) or radians (no).

endheader
time	pelvis_tilt	pelvis_list	pelvis_rotation	pelvis_tx	pelvis_ty	pelvis_tz	hip_flexion_r	hip_adduction_r	hip_rotation_r	knee_angle_r	knee_angle_r_beta	ankle_angle_r	subtalar_angle_r	mtp_angle_r	hip_flexion_l	hip_adduction_l	hip_rotation_l	knee_angle_l	knee_angle_l_beta	ankle_angle_l	subtalar_angle_l	mtp_angle_l	L5_S1_Flex_Ext	L5_S1_Lat_Bending	L5_S1_axial_rotation	L4_L5_Flex_Ext	L4_L5_Lat_Bending	L4_L5_axial_rotation	L3_L4_Flex_Ext	L3_L4_Lat_Bending	L3_L4_axial_rotation	L2_L3_Flex_Ext	L2_L3_Lat_Bending	L2_L3_axial_rotation	L1_L2_Flex_Ext	L1_L2_Lat_Bending	L1_L2_axial_rotation	L1_T12_Flex_Ext	L1_T12_Lat_Bending	L1_T12_axial_rotation	Abs_r3	Abs_r2	Abs_r1	Abs_t1	Abs_t2	neck_flexion	neck_bending	neck_rotation	arm_flex_r	arm_add_r	arm_rot_r	elbow_flex_r	pro_sup_r	wrist_flex_r	wrist_dev_r	arm_flex_l	arm_add_l	arm_rot_l	elbow_flex_l	pro_sup_l	wrist_flex_l	wrist_dev_l
      0.00000000	     -2.69367140	     -4.56815698	    107.07921361	      0.06209472	      0.97264347	      0.50811991	     -2.40598688	     -0.15879996	     -9.41784366	      4.78694771	      0.08354800	     21.24561069	      4.26282712	      0.00000000	     -0.62779155	      1.46258474	     17.14944322	      0.86371261	      0.01507463	     24.00062830	     -6.47927282	      0.00000000	      0.12895394	      0.12930582	     -1.37892727	      0.23948037	      0.17197675	     -1.46511022	      0.21185843	      0.31439418	     -1.46511022	      0.14738146	      0.31439418	     -1.20656136	      0.11974663	      0.26368044	     -1.12037840	      0.07368428	      0.20029472	     -1.03419545	      0.92110513	      1.46273334	     -7.66917978	      0.00000000	      0.00000000	     25.94136476	     -0.50317054	      0.99967542	     16.35719294	    -12.00874029	     75.12981654	     49.05891958	     88.02651392	     16.62609001	     12.28510100	      9.68098207	     -8.22922375	     50.09881237	     53.01241124	     79.03365670	     21.00093254	     25.60746207
      0.02127660	     -2.99144690	     -4.67928085	    106.10505995	      0.06325616	      0.97204636	      0.50747200	     -2.56459341	     -0.46571282	     -8.44476003	      4.05933121	      0.07084870	     21.74771121	      4.79486114	      0.00000000	     -0.80355103	      1.85765857	     15.50600901	      0.90430998	      0.01578319	     23.76757208	     -7.21386895	      0.00000000	      0.12820127	      0.08783221	     -1.21214149	      0.23808258	      0.11681684	     -1.28790033	      0.21062186	      0.21355523	     -1.28790033	      0.14652123	      0.21355523	     -1.06062380	      0.11904770	      0.17910744	     -0.98486496	      0.07325421	      0.13605209	     -0.90910612	      0.91572884	      0.99357552	     -6.74156733	      0.00000000	      0.00000000	     26.02989680	     -0.11697759	      0.87386291	     15.40607867	    -11.97522734	     73.01731658	     48.34226878	     86.03472124	     16.60446754	     10.41852446	      9.70736471	     -8.17936325	     50.57749438	     52.28818376	     80.41375721	     20.47628838	     24.69343058
      0.04255319	     -3.30856455	     -4.93180640	    105.42141932	      0.06436708	      0.97165572	      0.50692126	     -2.48809722	     -0.79142577	     -6.94859381	      3.62787353	      0.06331834	     21.86700638	      3.75995727	      0.00000000	     -0.73844705	      2.25423879	     12.97945544	      0.99692424	      0.01739961	     24.01102518	     -5.40511414	      0.00000000	      0.14439965	      0.02939711	     -0.95005215	      0.26816458	      0.03909816	     -1.00943041	      0.23723418	      0.07147614	     -1.00943041	      0.16503436	      0.07147614	     -0.83129563	      0.13408951	      0.05994659	     -0.77191737	      0.08250996	      0.04553613	     -0.71253911	      1.03143223	      0.33254602	     -5.28390506	      0.00000000	      0.00000000	     26.26045854	     -0.23096417	     -0.66876282	     11.64555365	    -12.61006803	     70.32647991	     52.69856634	      2.10882067	    -14.18768346	     23.11374875	     10.35742735	     -7.98473730	     52.14245276	     51.23387308	     82.56605702	     20.76882524	     22.83588417
      0.06382979	     -3.55354103	     -4.98493106	    104.81415924	      0.06546111	      0.97141225	      0.50681864	     -2.52230165	     -1.04614149	     -6.37551808	      3.38225438	      0.05903148	     22.08318235	      3.95424735	      0.00000000	     -0.82135662	      2.53131757	     12.31082377	      1.02273707	      0.01785013	     23.86473887	     -5.68200354	      0.00000000	      0.13837928	     -0.00300471	     -0.85001059	      0.25698416	     -0.00399626	     -0.90313625	      0.22734331	     -0.00730565	     -0.90313625	      0.15815368	     -0.00730565	     -0.74375927	      0.12849900	     -0.00612720	     -0.69063360	      0.07906992	     -0.00465429	     -0.63750794	      0.98842934	     -0.03398986	     -4.72750390	      0.00000000	      0.00000000	     26.29970897	      0.02488352	     -0.65298442	     11.18002547	    -12.32763861	     68.50733509	     52.20206748	      1.73890319	    -14.61472330	     22.43997433	     10.41179035	     -7.94006350	     52.34986031	     50.81582695	     83.21986745	     20.20233428	     22.03293585
      0.08510638	     -3.69306309	     -5.06634545	    104.37643986	      0.06641575	      0.97122392	      0.50696669	     -2.39394578	     -1.20733612	     -5.85684666	      3.40437861	      0.05941762	     22.21947716	      3.84911230	      0.00000000	     -0.81774269	      2.68270626	     11.93840624	      1.00254881	      0.01749778	     23.77664446	     -5.61872645	      0.00000000	      0.13998519	     -0.02385168	     -0.72622112	      0.25996649	     -0.03172273	     -0.77160994	      0.22998166	     -0.05799297	     -0.77160994	      0.15998907	     -0.05799297	     -0.63544348	      0.12999024	     -0.04863834	     -0.59005466	      0.07998754	     -0.03694625	     -0.54466584	      0.99990019	     -0.26981497	     -4.03902402	      0.00000000	      0.00000000	     26.32902997	     -0.02498227	     -0.93048689	     10.29485735	    -11.99593548	     65.51399925	     51.83719654	      1.47778063	    -15.98069668	     21.94775705	     10.72596906	     -7.78139958	     52.95362853	     50.24532303	     83.93144545	     19.68290726	     20.85558082
